<?xml version="1.0" encoding="UTF-8"?>
<svg width="765" height="263" viewBox="0 0 765 263" fill="none" xmlns="http://www.w3.org/2000/svg" role="img" aria-labelledby="title desc">
  <title id="title">HealthAI Coach</title>
  <desc id="desc">Logo HealthAI Coach clair pour navbar sombre</desc>

  <!-- Icône vectorisée -->
  <g transform="translate(6 24) scale(1.08)">
    <g fill="#FFFFFF" fill-rule="evenodd" stroke="none"><path d="M 66,54 L 64,56 L 64,75 L 62,77 L 44,77 L 43,79 L 43,100 L 45,103 L 63,103 L 64,104 L 64,123 L 67,125 L 87,125 L 90,123 L 90,109 L 89,108 L 90,104 L 91,103 L 109,103 L 111,100 L 111,79 L 110,77 L 108,76 L 107,77 L 94,77 L 90,75 L 90,58 L 88,54 Z" /><path d="M 77,6 L 74,8 L 72,8 L 70,10 L 62,12 L 55,16 L 49,17 L 47,19 L 44,19 L 42,21 L 38,21 L 36,23 L 30,24 L 28,26 L 24,26 L 19,29 L 16,29 L 13,31 L 9,31 L 6,35 L 6,90 L 7,91 L 8,105 L 9,106 L 10,113 L 12,115 L 13,122 L 16,126 L 16,128 L 23,141 L 31,150 L 32,153 L 33,153 L 45,166 L 49,168 L 50,170 L 54,173 L 56,173 L 59,175 L 60,177 L 63,179 L 65,179 L 65,159 L 59,156 L 57,153 L 54,152 L 53,150 L 44,142 L 42,138 L 40,137 L 39,134 L 37,133 L 36,130 L 33,127 L 32,123 L 28,117 L 28,114 L 26,112 L 26,108 L 24,105 L 24,100 L 23,99 L 22,89 L 21,88 L 21,83 L 22,82 L 21,81 L 21,71 L 22,70 L 21,69 L 21,49 L 22,48 L 21,44 L 27,42 L 29,40 L 33,40 L 39,38 L 41,36 L 43,36 L 46,34 L 50,34 L 52,32 L 55,32 L 57,30 L 61,30 L 63,28 L 71,26 L 73,24 L 80,24 L 93,30 L 104,33 L 106,35 L 110,35 L 112,37 L 115,37 L 117,39 L 130,43 L 131,44 L 131,51 L 132,52 L 146,52 L 146,32 L 143,32 L 130,26 L 121,24 L 116,21 L 110,20 L 108,18 L 97,15 L 95,13 L 90,12 L 87,10 L 84,10 L 82,8 L 80,8 Z" /></g>
<g fill="#2DBEE6" fill-rule="evenodd" stroke="none"><path d="M 79,161 L 75,162 L 71,167 L 71,171 L 75,176 L 81,176 L 83,175 L 86,170 L 84,164 Z M 77,166 L 80,166 L 81,167 L 81,170 L 79,172 L 77,172 L 75,170 L 75,168 Z" /><path d="M 115,120 L 110,120 L 106,124 L 106,129 L 110,133 L 110,140 L 103,145 L 99,142 L 94,142 L 90,147 L 91,151 L 96,155 L 96,169 L 91,174 L 91,179 L 95,184 L 101,184 L 103,183 L 106,178 L 105,173 L 101,170 L 101,153 L 115,142 L 115,133 L 116,132 L 119,132 L 127,139 L 127,159 L 125,160 L 121,165 L 122,171 L 125,174 L 130,175 L 134,173 L 136,170 L 136,164 L 135,162 L 131,159 L 131,137 L 119,126 L 119,124 Z M 97,174 L 100,174 L 101,175 L 101,178 L 99,180 L 97,180 L 95,178 L 95,176 Z M 127,164 L 130,164 L 132,166 L 132,168 L 130,170 L 127,170 L 125,168 L 125,166 Z M 95,147 L 97,146 L 98,149 L 96,150 Z M 112,124 L 115,126 L 113,129 L 110,127 Z" /><path d="M 151,60 L 146,62 L 144,65 L 144,71 L 149,76 L 149,93 L 146,96 L 141,96 L 140,95 L 140,90 L 135,86 L 130,86 L 126,90 L 125,95 L 127,99 L 131,101 L 131,118 L 146,118 L 150,121 L 150,134 L 145,138 L 144,143 L 147,148 L 149,149 L 154,149 L 156,148 L 159,144 L 159,139 L 158,137 L 154,134 L 154,119 L 149,114 L 136,114 L 135,113 L 135,102 L 136,101 L 147,101 L 153,95 L 153,75 L 157,72 L 158,66 L 154,61 Z M 149,140 L 150,139 L 153,139 L 155,141 L 155,143 L 153,145 L 151,145 L 149,143 Z M 129,93 L 131,91 L 135,91 L 136,92 L 136,95 L 135,96 L 131,96 Z M 150,65 L 153,66 L 153,69 L 152,70 L 149,70 L 148,69 L 148,67 Z" /><path d="M 132,59 L 128,62 L 127,68 L 130,71 L 136,71 L 138,70 L 140,65 L 137,60 Z M 131,65 L 134,64 L 135,66 L 132,67 Z" /></g>
  </g>

  <!-- Texte SVG éditable -->
  <text x="226" y="126"
        fill="#FFFFFF"
        font-family="Montserrat, Inter, Arial, Helvetica, sans-serif"
        font-size="58"
        font-weight="800"
        letter-spacing="0">
    HealthAI Coach
  </text>

  <text x="226" y="174"
        fill="#2DBEE6"
        font-family="Montserrat, Inter, Arial, Helvetica, sans-serif"
        font-size="34"
        font-weight="700"
        letter-spacing="0.2">
    Santé connectée • Données • IA
  </text>
</svg>
